<mxfile host="Electron" agent="Mozilla/5.0 (Windows NT 10.0; Win64; x64) AppleWebKit/537.36 (KHTML, like Gecko) draw.io/26.0.16 Chrome/132.0.6834.196 Electron/34.2.0 Safari/537.36" version="26.0.16">
  <diagram name="페이지-1" id="CLeDhd1ypwqc7ZZ1OS6j">
    <mxGraphModel dx="1872" dy="890" grid="1" gridSize="10" guides="1" tooltips="1" connect="1" arrows="1" fold="1" page="1" pageScale="1" pageWidth="827" pageHeight="1169" math="0" shadow="0">
      <root>
        <mxCell id="0" />
        <mxCell id="1" parent="0" />
        <mxCell id="IOV6ek74_oSZAk83avd2-86" value="" style="rounded=0;whiteSpace=wrap;html=1;" vertex="1" parent="1">
          <mxGeometry x="-120" y="80" width="920" height="640" as="geometry" />
        </mxCell>
        <mxCell id="IOV6ek74_oSZAk83avd2-1" value="FIFO TX" style="rounded=0;whiteSpace=wrap;html=1;strokeWidth=3;labelPosition=center;verticalLabelPosition=top;align=center;verticalAlign=bottom;" vertex="1" parent="1">
          <mxGeometry x="160" y="160" width="170" height="200" as="geometry" />
        </mxCell>
        <mxCell id="IOV6ek74_oSZAk83avd2-2" value="TX" style="rounded=0;whiteSpace=wrap;html=1;strokeWidth=3;labelPosition=center;verticalLabelPosition=top;align=center;verticalAlign=bottom;" vertex="1" parent="1">
          <mxGeometry x="482" y="160" width="170" height="200" as="geometry" />
        </mxCell>
        <mxCell id="IOV6ek74_oSZAk83avd2-5" value="" style="endArrow=classic;html=1;rounded=0;entryX=0.009;entryY=0.101;entryDx=0;entryDy=0;entryPerimeter=0;" edge="1" parent="1">
          <mxGeometry width="50" height="50" relative="1" as="geometry">
            <mxPoint x="118" y="220" as="sourcePoint" />
            <mxPoint x="160" y="220" as="targetPoint" />
          </mxGeometry>
        </mxCell>
        <mxCell id="IOV6ek74_oSZAk83avd2-35" value="WDATA" style="edgeLabel;html=1;align=center;verticalAlign=middle;resizable=0;points=[];" vertex="1" connectable="0" parent="IOV6ek74_oSZAk83avd2-5">
          <mxGeometry x="-0.1524" y="2" relative="1" as="geometry">
            <mxPoint x="55" y="2" as="offset" />
          </mxGeometry>
        </mxCell>
        <mxCell id="IOV6ek74_oSZAk83avd2-6" value="" style="endArrow=classic;html=1;rounded=0;entryX=0.009;entryY=0.101;entryDx=0;entryDy=0;entryPerimeter=0;exitX=0.003;exitY=0.601;exitDx=0;exitDy=0;exitPerimeter=0;" edge="1" parent="1" source="IOV6ek74_oSZAk83avd2-1">
          <mxGeometry width="50" height="50" relative="1" as="geometry">
            <mxPoint x="160" y="280" as="sourcePoint" />
            <mxPoint x="118" y="280" as="targetPoint" />
            <Array as="points" />
          </mxGeometry>
        </mxCell>
        <mxCell id="IOV6ek74_oSZAk83avd2-36" value="FULL" style="edgeLabel;html=1;align=center;verticalAlign=middle;resizable=0;points=[];" vertex="1" connectable="0" parent="IOV6ek74_oSZAk83avd2-6">
          <mxGeometry x="0.1905" y="2" relative="1" as="geometry">
            <mxPoint x="45" y="8" as="offset" />
          </mxGeometry>
        </mxCell>
        <mxCell id="IOV6ek74_oSZAk83avd2-7" value="" style="endArrow=classic;html=1;rounded=0;entryX=0.009;entryY=0.101;entryDx=0;entryDy=0;entryPerimeter=0;exitX=1;exitY=0.5;exitDx=0;exitDy=0;" edge="1" parent="1" source="IOV6ek74_oSZAk83avd2-79">
          <mxGeometry width="50" height="50" relative="1" as="geometry">
            <mxPoint x="118" y="330" as="sourcePoint" />
            <mxPoint x="160" y="330" as="targetPoint" />
          </mxGeometry>
        </mxCell>
        <mxCell id="IOV6ek74_oSZAk83avd2-51" value="WR_EN" style="edgeLabel;html=1;align=center;verticalAlign=middle;resizable=0;points=[];" vertex="1" connectable="0" parent="IOV6ek74_oSZAk83avd2-7">
          <mxGeometry x="-0.0079" y="1" relative="1" as="geometry">
            <mxPoint x="81" y="1" as="offset" />
          </mxGeometry>
        </mxCell>
        <mxCell id="IOV6ek74_oSZAk83avd2-8" value="" style="endArrow=classic;html=1;rounded=0;" edge="1" parent="1">
          <mxGeometry width="50" height="50" relative="1" as="geometry">
            <mxPoint x="330" y="230" as="sourcePoint" />
            <mxPoint x="440" y="230" as="targetPoint" />
          </mxGeometry>
        </mxCell>
        <mxCell id="IOV6ek74_oSZAk83avd2-48" value="RDATA" style="edgeLabel;html=1;align=center;verticalAlign=middle;resizable=0;points=[];" vertex="1" connectable="0" parent="IOV6ek74_oSZAk83avd2-8">
          <mxGeometry x="-0.0635" y="1" relative="1" as="geometry">
            <mxPoint x="-82" y="1" as="offset" />
          </mxGeometry>
        </mxCell>
        <mxCell id="IOV6ek74_oSZAk83avd2-9" value="" style="endArrow=classic;html=1;rounded=0;entryX=0;entryY=0.5;entryDx=0;entryDy=0;" edge="1" parent="1">
          <mxGeometry width="50" height="50" relative="1" as="geometry">
            <mxPoint x="330" y="269.74" as="sourcePoint" />
            <mxPoint x="393.5" y="269.74" as="targetPoint" />
          </mxGeometry>
        </mxCell>
        <mxCell id="IOV6ek74_oSZAk83avd2-49" value="EMPTY" style="edgeLabel;html=1;align=center;verticalAlign=middle;resizable=0;points=[];" vertex="1" connectable="0" parent="IOV6ek74_oSZAk83avd2-9">
          <mxGeometry x="0.2937" y="-1" relative="1" as="geometry">
            <mxPoint x="-71" y="-1" as="offset" />
          </mxGeometry>
        </mxCell>
        <mxCell id="IOV6ek74_oSZAk83avd2-10" value="" style="endArrow=classic;html=1;rounded=0;entryX=0.009;entryY=0.101;entryDx=0;entryDy=0;entryPerimeter=0;exitX=1;exitY=0.5;exitDx=0;exitDy=0;" edge="1" parent="1" source="IOV6ek74_oSZAk83avd2-72">
          <mxGeometry width="50" height="50" relative="1" as="geometry">
            <mxPoint x="372" y="320" as="sourcePoint" />
            <mxPoint x="330" y="320" as="targetPoint" />
          </mxGeometry>
        </mxCell>
        <mxCell id="IOV6ek74_oSZAk83avd2-50" value="RD_EN" style="edgeLabel;html=1;align=center;verticalAlign=middle;resizable=0;points=[];" vertex="1" connectable="0" parent="IOV6ek74_oSZAk83avd2-10">
          <mxGeometry x="0.1032" y="-2" relative="1" as="geometry">
            <mxPoint x="-49" as="offset" />
          </mxGeometry>
        </mxCell>
        <mxCell id="IOV6ek74_oSZAk83avd2-11" value="" style="endArrow=classic;html=1;rounded=0;entryX=0.009;entryY=0.101;entryDx=0;entryDy=0;entryPerimeter=0;" edge="1" parent="1">
          <mxGeometry width="50" height="50" relative="1" as="geometry">
            <mxPoint x="440" y="230" as="sourcePoint" />
            <mxPoint x="482" y="230" as="targetPoint" />
          </mxGeometry>
        </mxCell>
        <mxCell id="IOV6ek74_oSZAk83avd2-46" value="TX_DATA" style="edgeLabel;html=1;align=center;verticalAlign=middle;resizable=0;points=[];" vertex="1" connectable="0" parent="IOV6ek74_oSZAk83avd2-11">
          <mxGeometry x="-0.0238" y="3" relative="1" as="geometry">
            <mxPoint x="59" as="offset" />
          </mxGeometry>
        </mxCell>
        <mxCell id="IOV6ek74_oSZAk83avd2-12" value="" style="endArrow=classic;html=1;rounded=0;entryX=0.009;entryY=0.101;entryDx=0;entryDy=0;entryPerimeter=0;exitX=1;exitY=0.5;exitDx=0;exitDy=0;" edge="1" parent="1" source="IOV6ek74_oSZAk83avd2-70">
          <mxGeometry width="50" height="50" relative="1" as="geometry">
            <mxPoint x="440" y="270" as="sourcePoint" />
            <mxPoint x="482" y="270" as="targetPoint" />
            <Array as="points">
              <mxPoint x="460" y="270" />
            </Array>
          </mxGeometry>
        </mxCell>
        <mxCell id="IOV6ek74_oSZAk83avd2-47" value="TX_START" style="edgeLabel;html=1;align=center;verticalAlign=middle;resizable=0;points=[];" vertex="1" connectable="0" parent="IOV6ek74_oSZAk83avd2-12">
          <mxGeometry x="-0.4603" y="-2" relative="1" as="geometry">
            <mxPoint x="68" y="8" as="offset" />
          </mxGeometry>
        </mxCell>
        <mxCell id="IOV6ek74_oSZAk83avd2-14" value="" style="endArrow=classic;html=1;rounded=0;entryX=0.009;entryY=0.101;entryDx=0;entryDy=0;entryPerimeter=0;" edge="1" parent="1">
          <mxGeometry width="50" height="50" relative="1" as="geometry">
            <mxPoint x="652" y="259.71" as="sourcePoint" />
            <mxPoint x="694" y="259.71" as="targetPoint" />
          </mxGeometry>
        </mxCell>
        <mxCell id="IOV6ek74_oSZAk83avd2-15" value="FIFO RX" style="rounded=0;whiteSpace=wrap;html=1;strokeWidth=3;labelPosition=center;verticalLabelPosition=top;align=center;verticalAlign=bottom;" vertex="1" parent="1">
          <mxGeometry x="162" y="430" width="170" height="200" as="geometry" />
        </mxCell>
        <mxCell id="IOV6ek74_oSZAk83avd2-16" value="RX" style="rounded=0;whiteSpace=wrap;html=1;strokeWidth=3;labelPosition=center;verticalLabelPosition=top;align=center;verticalAlign=bottom;" vertex="1" parent="1">
          <mxGeometry x="482" y="430" width="170" height="200" as="geometry" />
        </mxCell>
        <mxCell id="IOV6ek74_oSZAk83avd2-19" value="" style="endArrow=classic;html=1;rounded=0;entryX=0.009;entryY=0.101;entryDx=0;entryDy=0;entryPerimeter=0;" edge="1" parent="1">
          <mxGeometry width="50" height="50" relative="1" as="geometry">
            <mxPoint x="376" y="470" as="sourcePoint" />
            <mxPoint x="334" y="470" as="targetPoint" />
          </mxGeometry>
        </mxCell>
        <mxCell id="IOV6ek74_oSZAk83avd2-40" value="WDATA" style="edgeLabel;html=1;align=center;verticalAlign=middle;resizable=0;points=[];" vertex="1" connectable="0" parent="IOV6ek74_oSZAk83avd2-19">
          <mxGeometry x="-0.2332" y="3" relative="1" as="geometry">
            <mxPoint x="-60" y="-3" as="offset" />
          </mxGeometry>
        </mxCell>
        <mxCell id="IOV6ek74_oSZAk83avd2-20" value="" style="endArrow=classic;html=1;rounded=0;entryX=0.009;entryY=0.101;entryDx=0;entryDy=0;entryPerimeter=0;" edge="1" parent="1">
          <mxGeometry width="50" height="50" relative="1" as="geometry">
            <mxPoint x="332" y="540" as="sourcePoint" />
            <mxPoint x="374" y="540" as="targetPoint" />
          </mxGeometry>
        </mxCell>
        <mxCell id="IOV6ek74_oSZAk83avd2-41" value="FULL" style="edgeLabel;html=1;align=center;verticalAlign=middle;resizable=0;points=[];" vertex="1" connectable="0" parent="IOV6ek74_oSZAk83avd2-20">
          <mxGeometry x="0.0033" y="1" relative="1" as="geometry">
            <mxPoint x="-53" y="-9" as="offset" />
          </mxGeometry>
        </mxCell>
        <mxCell id="IOV6ek74_oSZAk83avd2-21" value="" style="endArrow=classic;html=1;rounded=0;entryX=0.009;entryY=0.101;entryDx=0;entryDy=0;entryPerimeter=0;" edge="1" parent="1">
          <mxGeometry width="50" height="50" relative="1" as="geometry">
            <mxPoint x="374" y="600" as="sourcePoint" />
            <mxPoint x="332" y="600" as="targetPoint" />
          </mxGeometry>
        </mxCell>
        <mxCell id="IOV6ek74_oSZAk83avd2-42" value="WR_EN" style="edgeLabel;html=1;align=center;verticalAlign=middle;resizable=0;points=[];" vertex="1" connectable="0" parent="IOV6ek74_oSZAk83avd2-21">
          <mxGeometry x="-0.1018" y="-2" relative="1" as="geometry">
            <mxPoint x="-55" as="offset" />
          </mxGeometry>
        </mxCell>
        <mxCell id="IOV6ek74_oSZAk83avd2-22" value="" style="endArrow=classic;html=1;rounded=0;entryX=0.009;entryY=0.101;entryDx=0;entryDy=0;entryPerimeter=0;" edge="1" parent="1">
          <mxGeometry width="50" height="50" relative="1" as="geometry">
            <mxPoint x="160" y="480" as="sourcePoint" />
            <mxPoint x="118" y="480" as="targetPoint" />
          </mxGeometry>
        </mxCell>
        <mxCell id="IOV6ek74_oSZAk83avd2-37" value="RDATA" style="edgeLabel;html=1;align=center;verticalAlign=middle;resizable=0;points=[];" vertex="1" connectable="0" parent="IOV6ek74_oSZAk83avd2-22">
          <mxGeometry x="0.3152" y="-1" relative="1" as="geometry">
            <mxPoint x="58" y="-1" as="offset" />
          </mxGeometry>
        </mxCell>
        <mxCell id="IOV6ek74_oSZAk83avd2-23" value="" style="endArrow=classic;html=1;rounded=0;entryX=0;entryY=0.5;entryDx=0;entryDy=0;" edge="1" parent="1" target="IOV6ek74_oSZAk83avd2-78">
          <mxGeometry width="50" height="50" relative="1" as="geometry">
            <mxPoint x="160" y="534.62" as="sourcePoint" />
            <mxPoint y="330" as="targetPoint" />
            <Array as="points">
              <mxPoint y="535" />
              <mxPoint y="330" />
            </Array>
          </mxGeometry>
        </mxCell>
        <mxCell id="IOV6ek74_oSZAk83avd2-38" value="EMPTY" style="edgeLabel;html=1;align=center;verticalAlign=middle;resizable=0;points=[];" vertex="1" connectable="0" parent="IOV6ek74_oSZAk83avd2-23">
          <mxGeometry x="-0.1156" relative="1" as="geometry">
            <mxPoint x="190" y="10" as="offset" />
          </mxGeometry>
        </mxCell>
        <mxCell id="IOV6ek74_oSZAk83avd2-24" value="" style="endArrow=classic;html=1;rounded=0;entryX=0.009;entryY=0.101;entryDx=0;entryDy=0;entryPerimeter=0;exitX=1;exitY=0.5;exitDx=0;exitDy=0;" edge="1" parent="1" source="IOV6ek74_oSZAk83avd2-83">
          <mxGeometry width="50" height="50" relative="1" as="geometry">
            <mxPoint x="118" y="600" as="sourcePoint" />
            <mxPoint x="160" y="600" as="targetPoint" />
          </mxGeometry>
        </mxCell>
        <mxCell id="IOV6ek74_oSZAk83avd2-39" value="RD_EN" style="edgeLabel;html=1;align=center;verticalAlign=middle;resizable=0;points=[];" vertex="1" connectable="0" parent="IOV6ek74_oSZAk83avd2-24">
          <mxGeometry x="0.1383" y="-2" relative="1" as="geometry">
            <mxPoint x="48" y="-2" as="offset" />
          </mxGeometry>
        </mxCell>
        <mxCell id="IOV6ek74_oSZAk83avd2-25" value="" style="endArrow=classic;html=1;rounded=0;" edge="1" parent="1">
          <mxGeometry width="50" height="50" relative="1" as="geometry">
            <mxPoint x="482" y="470" as="sourcePoint" />
            <mxPoint x="370" y="470" as="targetPoint" />
          </mxGeometry>
        </mxCell>
        <mxCell id="IOV6ek74_oSZAk83avd2-30" value="RX_DATA" style="edgeLabel;html=1;align=center;verticalAlign=middle;resizable=0;points=[];" vertex="1" connectable="0" parent="IOV6ek74_oSZAk83avd2-25">
          <mxGeometry x="-0.2594" y="-1" relative="1" as="geometry">
            <mxPoint x="79" y="1" as="offset" />
          </mxGeometry>
        </mxCell>
        <mxCell id="IOV6ek74_oSZAk83avd2-26" value="" style="endArrow=classic;html=1;rounded=0;" edge="1" parent="1">
          <mxGeometry width="50" height="50" relative="1" as="geometry">
            <mxPoint x="482" y="540" as="sourcePoint" />
            <mxPoint x="440" y="540" as="targetPoint" />
          </mxGeometry>
        </mxCell>
        <mxCell id="IOV6ek74_oSZAk83avd2-31" value="RX_DONE" style="edgeLabel;html=1;align=center;verticalAlign=middle;resizable=0;points=[];" vertex="1" connectable="0" parent="IOV6ek74_oSZAk83avd2-26">
          <mxGeometry x="-0.4236" relative="1" as="geometry">
            <mxPoint x="50" as="offset" />
          </mxGeometry>
        </mxCell>
        <mxCell id="IOV6ek74_oSZAk83avd2-28" value="" style="endArrow=classic;html=1;rounded=0;entryX=0.009;entryY=0.101;entryDx=0;entryDy=0;entryPerimeter=0;" edge="1" parent="1">
          <mxGeometry width="50" height="50" relative="1" as="geometry">
            <mxPoint x="694" y="529.71" as="sourcePoint" />
            <mxPoint x="652" y="529.71" as="targetPoint" />
          </mxGeometry>
        </mxCell>
        <mxCell id="IOV6ek74_oSZAk83avd2-60" value="8" style="text;html=1;align=center;verticalAlign=middle;whiteSpace=wrap;rounded=0;fontColor=#FF0000;" vertex="1" parent="1">
          <mxGeometry x="370" y="440" width="60" height="30" as="geometry" />
        </mxCell>
        <mxCell id="IOV6ek74_oSZAk83avd2-61" value="" style="endArrow=classic;html=1;rounded=0;" edge="1" parent="1">
          <mxGeometry width="50" height="50" relative="1" as="geometry">
            <mxPoint x="120" y="480" as="sourcePoint" />
            <mxPoint x="120" y="220" as="targetPoint" />
            <Array as="points">
              <mxPoint x="80" y="480" />
              <mxPoint x="80" y="350" />
              <mxPoint x="80" y="220" />
            </Array>
          </mxGeometry>
        </mxCell>
        <mxCell id="IOV6ek74_oSZAk83avd2-62" value="" style="endArrow=classic;html=1;rounded=0;strokeColor=#FF0000;" edge="1" parent="1">
          <mxGeometry width="50" height="50" relative="1" as="geometry">
            <mxPoint x="440" y="540" as="sourcePoint" />
            <mxPoint x="370" y="600" as="targetPoint" />
            <Array as="points">
              <mxPoint x="410" y="540" />
              <mxPoint x="410" y="570" />
              <mxPoint x="410" y="600" />
            </Array>
          </mxGeometry>
        </mxCell>
        <mxCell id="IOV6ek74_oSZAk83avd2-64" value="" style="endArrow=classic;html=1;rounded=0;entryX=0;entryY=0.5;entryDx=0;entryDy=0;" edge="1" parent="1" target="IOV6ek74_oSZAk83avd2-71">
          <mxGeometry width="50" height="50" relative="1" as="geometry">
            <mxPoint x="482" y="320" as="sourcePoint" />
            <mxPoint x="440" y="320" as="targetPoint" />
            <Array as="points">
              <mxPoint x="460" y="320" />
            </Array>
          </mxGeometry>
        </mxCell>
        <mxCell id="IOV6ek74_oSZAk83avd2-65" value="TX_DONE" style="edgeLabel;html=1;align=center;verticalAlign=middle;resizable=0;points=[];" vertex="1" connectable="0" parent="IOV6ek74_oSZAk83avd2-64">
          <mxGeometry x="-0.4603" y="-2" relative="1" as="geometry">
            <mxPoint x="68" y="8" as="offset" />
          </mxGeometry>
        </mxCell>
        <mxCell id="IOV6ek74_oSZAk83avd2-68" value="" style="triangle;whiteSpace=wrap;html=1;strokeColor=#FF0000;" vertex="1" parent="1">
          <mxGeometry x="393.5" y="250" width="20" height="40" as="geometry" />
        </mxCell>
        <mxCell id="IOV6ek74_oSZAk83avd2-70" value="" style="ellipse;whiteSpace=wrap;html=1;aspect=fixed;strokeColor=#FF0000;" vertex="1" parent="1">
          <mxGeometry x="413" y="265" width="10" height="10" as="geometry" />
        </mxCell>
        <mxCell id="IOV6ek74_oSZAk83avd2-71" value="" style="triangle;whiteSpace=wrap;html=1;direction=west;strokeColor=#FF0000;" vertex="1" parent="1">
          <mxGeometry x="399" y="300" width="20" height="40" as="geometry" />
        </mxCell>
        <mxCell id="IOV6ek74_oSZAk83avd2-72" value="" style="ellipse;whiteSpace=wrap;html=1;aspect=fixed;direction=west;strokeColor=#FF0000;" vertex="1" parent="1">
          <mxGeometry x="389" y="315" width="10" height="10" as="geometry" />
        </mxCell>
        <mxCell id="IOV6ek74_oSZAk83avd2-78" value="" style="triangle;whiteSpace=wrap;html=1;strokeColor=#FF0000;" vertex="1" parent="1">
          <mxGeometry x="30" y="310" width="20" height="40" as="geometry" />
        </mxCell>
        <mxCell id="IOV6ek74_oSZAk83avd2-79" value="" style="ellipse;whiteSpace=wrap;html=1;aspect=fixed;strokeColor=#FF0000;" vertex="1" parent="1">
          <mxGeometry x="49.5" y="325" width="10" height="10" as="geometry" />
        </mxCell>
        <mxCell id="IOV6ek74_oSZAk83avd2-82" value="" style="triangle;whiteSpace=wrap;html=1;strokeColor=#FF0000;" vertex="1" parent="1">
          <mxGeometry x="70" y="580" width="20" height="40" as="geometry" />
        </mxCell>
        <mxCell id="IOV6ek74_oSZAk83avd2-83" value="" style="ellipse;whiteSpace=wrap;html=1;aspect=fixed;strokeColor=#FF0000;" vertex="1" parent="1">
          <mxGeometry x="89.5" y="595" width="10" height="10" as="geometry" />
        </mxCell>
        <mxCell id="IOV6ek74_oSZAk83avd2-85" value="" style="endArrow=classic;html=1;rounded=0;entryX=0;entryY=0.5;entryDx=0;entryDy=0;" edge="1" parent="1" target="IOV6ek74_oSZAk83avd2-82">
          <mxGeometry width="50" height="50" relative="1" as="geometry">
            <mxPoint x="120" y="280" as="sourcePoint" />
            <mxPoint x="-40" y="650" as="targetPoint" />
            <Array as="points">
              <mxPoint x="-40" y="280" />
              <mxPoint x="-40" y="600" />
            </Array>
          </mxGeometry>
        </mxCell>
      </root>
    </mxGraphModel>
  </diagram>
</mxfile>
